<svg xmlns="http://www.w3.org/2000/svg" xmlns:xlink="http://www.w3.org/1999/xlink" width="149" height="114" viewBox="0 0 149 114">
    <defs>
        <path id="p4rojzi1la" d="M0.005 0.301L134.98 0.301 134.98 74.728 0.005 74.728z"/>
    </defs>
    <g fill="none" fill-rule="evenodd">
        <g>
            <g>
                <path fill="#324186" d="M92.415 6.406L92.415 11.406 130.415 8.906 92.415 6.406M94.415 11.406L94.415 16.406 132.415 13.905 94.415 11.406" transform="translate(-144 -33) translate(144.585 33.594)"/>
                <path fill="#324186" d="M96.415 15.406L96.415 20.406 134.415 17.906 96.415 15.406" transform="translate(-144 -33) translate(144.585 33.594)"/>
                <path fill="#324186" d="M98.415 19.406L98.415 24.406 136.415 21.906 98.415 19.406M100.415 24.406L100.415 29.406 138.415 26.906 100.415 24.406" transform="translate(-144 -33) translate(144.585 33.594)"/>
                <path fill="#324186" d="M102.415 28.406L102.415 33.406 140.415 30.905 102.415 28.406M104.415 33.406L104.415 38.406 142.415 35.906 104.415 33.406" transform="translate(-144 -33) translate(144.585 33.594)"/>
                <path fill="#324186" d="M106.415 37.406L106.415 42.406 144.415 39.905 106.415 37.406M54.415 6.406L54.415 11.406 16.415 8.906 54.415 6.406M52.415 11.406L52.415 16.406 14.415 13.905 52.415 11.406" transform="translate(-144 -33) translate(144.585 33.594)"/>
                <path fill="#324186" d="M50.415 15.406L50.415 20.406 12.415 17.906 50.415 15.406" transform="translate(-144 -33) translate(144.585 33.594)"/>
                <path fill="#324186" d="M48.415 19.406L48.415 24.406 10.415 21.906 48.415 19.406M46.415 24.406L46.415 29.406 8.415 26.906 46.415 24.406" transform="translate(-144 -33) translate(144.585 33.594)"/>
                <path fill="#324186" d="M44.415 28.406L44.415 33.406 6.415 30.905 44.415 28.406M42.415 33.406L42.415 38.406 4.415 35.906 42.415 33.406" transform="translate(-144 -33) translate(144.585 33.594)"/>
                <g transform="translate(-144 -33) translate(144.585 33.594) translate(2.415 37.406)">
                    <mask id="y4qtjzd4pb" fill="#fff">
                        <use xlink:href="#p4rojzi1la"/>
                    </mask>
                    <path fill="#324186" d="M37.859.301L37.859 4.839.005 2.569 37.859.301M69.135 74.726c-18.586.185-33.796-10.046-43.216-23.499C16.25 37.57 12.372 39.515 10.733 21.684c-.964-13.358-3.444 20.92-7.442 7.562 43.896-8.448 87.792-8.448 131.689 0-3.999 13.359-6.479-20.92-7.442-7.562-1.64 17.831-5.518 15.886-15.187 29.543-9.42 13.453-24.63 23.684-43.216 23.499" mask="url(#y4qtjzd4pb)"/>
                </g>
                <path fill="#FFFFFE" d="M130.11 69c-19.506-3.4-39.254-5.124-58.695-5.124-19.442 0-39.19 1.724-58.696 5.125l-2.304.4.596 2.26c3.041 11.523 5.004-24.44 5.833-12.964l.003.042c1.876 20.408 6.477 16.375 14.474 27.709l.015.02c9.732 13.942 24.163 21.938 39.595 21.938l.453-.002H71.455l.444.002c15.432 0 29.863-7.996 39.593-21.934l.012-.018c8.002-11.34 12.603-7.307 14.479-27.715l.003-.042c.829-11.476 2.792 24.485 5.833 12.962l.596-2.257-2.304-.401" transform="translate(-144 -33) translate(144.585 33.594)"/>
                <path fill="#324186" d="M33.377 85.626l.018.025c5.174 7.473 11.712 13.167 19.02 16.755V66.871c-12.999.76-26.043 2.28-39 4.557 3.073 11.737 5.05-24.359 5.89-12.653 1.836 20.15 6.308 15.76 14.072 26.851" transform="translate(-144 -33) translate(144.585 33.594)"/>
                <path fill="#FFFFFE" d="M91.415 67c-6.612-.392-13.213-.594-19.786-.594-6.383 0-12.793.19-19.214.56v35.104c5.852 2.834 12.197 4.336 18.731 4.336.143 0 .283 0 .426-.002H71.688c.141.002.284.002.425.002 6.747 0 13.292-1.6 19.302-4.616V67" transform="translate(-144 -33) translate(144.585 33.594)"/>
                <path fill="#D33037" d="M92.415 102.406c6.998-3.624 13.26-9.25 18.244-16.573l.017-.025c7.677-11.16 12.1-6.742 13.916-27.018.829-11.78 2.785 24.54 5.823 12.732-12.625-2.258-25.333-3.776-38-4.55v35.434" transform="translate(-144 -33) translate(144.585 33.594)"/>
                <path fill="#FFFFFE" d="M75.773 86.364l.45-.021c.148-.008.295-.018.443-.027 10.317-.655 19.926-4.983 27.301-12.358 7.645-7.645 12.016-17.69 12.415-28.437l.01-.292c.005-.15.01-.299.012-.448.007-.295.011-.587.011-.875 0-.319-.004-.637-.012-.955l-.008-.31c-.006-.216-.014-.432-.024-.648l-.016-.358c-.011-.21-.025-.42-.04-.63-.009-.143-.018-.285-.029-.428-.02-.248-.04-.497-.064-.745-.017-.181-.037-.362-.056-.542l-.037-.336c-.024-.207-.05-.414-.076-.62l-.023-.168c-1.231-9.176-5.405-17.654-12.063-24.312-8.027-8.027-18.7-12.448-30.052-12.448-11.351 0-22.025 4.42-30.052 12.448-8.027 8.027-12.448 18.7-12.448 30.052s4.421 22.025 12.448 30.052c5.604 5.605 12.499 9.448 20.013 11.26.109.025.217.05.326.077.185.043.372.085.558.126.219.048.437.094.656.139.07.013.139.028.207.042.3.059.6.115.9.167l.109.019c.324.056.65.108.975.156l.017.002c1.024.151 2.056.265 3.096.342l.038.003c.33.024.66.044.991.06l.101.005c.322.016.644.028.967.036l.106.002c.33.007.661.012.992.012.312 0 .625-.005.937-.012.122-.002.243-.006.364-.01.186-.005.372-.012.557-.02" transform="translate(-144 -33) translate(144.585 33.594)"/>
                <path fill="#D9DAD6" d="M116.403 42.79l-.008-.31c-.006-.217-.014-.434-.024-.651-.006-.12-.01-.24-.017-.36-.01-.21-.025-.42-.039-.631-.01-.144-.018-.287-.03-.43-.019-.25-.04-.499-.063-.748-.018-.182-.038-.363-.057-.544l-.037-.337c-.024-.208-.05-.415-.076-.622l-.023-.17c-1.236-9.209-5.426-17.718-12.108-24.401-4.655-4.656-10.199-8.099-16.246-10.18.905 2.634 1.554 5.363 1.928 8.156.009.057.016.113.023.17.028.207.053.414.076.621.014.113.026.225.038.337.02.182.04.363.056.545.024.25.045.499.064.748l.03.429c.015.21.028.421.039.632.007.12.012.24.017.36l.024.651.008.31c.008.32.012.64.012.959 0 .288-.004.582-.01.878-.003.15-.008.3-.013.45l-.01.293c-.401 10.786-4.787 20.869-12.46 28.541-7.404 7.404-17.049 11.747-27.403 12.404-.148.01-.296.02-.444.027l-.452.022c-.187.008-.373.014-.56.02-.121.004-.242.008-.364.01-.315.008-.629.012-.941.012-.333 0-.664-.005-.996-.012l-.106-.003c-.324-.008-.648-.02-.971-.035l-.101-.004c-.332-.018-.664-.037-.995-.062l-.038-.002c-1.043-.077-2.08-.191-3.107-.343l-.017-.003c-.328-.048-.654-.1-.98-.157l-.107-.018c-.302-.053-.604-.109-.904-.168l-.208-.043c-.22-.045-.44-.09-.659-.138-.187-.042-.374-.084-.56-.128-.11-.025-.219-.05-.327-.077-1.3-.314-2.582-.69-3.842-1.122 2.081 6.047 5.525 11.59 10.18 16.246 5.625 5.625 12.545 9.483 20.087 11.3l.327.079c.186.043.373.086.56.127.22.047.44.094.658.139.07.013.14.028.209.042.3.059.602.115.904.168l.108.018c.326.057.652.11.978.157l.018.003c1.028.151 2.064.266 3.108.343l.037.003c.331.024.663.044.995.06l.102.005c.323.016.646.028.97.036l.106.002c.332.007.664.012.996.012.313 0 .627-.005.94-.012.123-.002.245-.006.366-.01.187-.005.373-.012.56-.02l.45-.021c.149-.008.297-.018.445-.028 10.355-.657 20-5 27.402-12.403 7.673-7.673 12.06-17.755 12.46-28.542.005-.097.008-.196.012-.293.004-.15.009-.3.011-.45.007-.295.011-.589.011-.878 0-.32-.004-.64-.012-.958" transform="translate(-144 -33) translate(144.585 33.594)"/>
                <path fill="#324186" d="M103.948 53.143c-.156-.088-.314-.17-.471-.253-.316-.165-.633-.323-.951-.478-.159-.08-.32-.153-.48-.23-.159-.075-.319-.15-.48-.222-.32-.149-.643-.292-.966-.432-.323-.144-.649-.275-.973-.413-.325-.136-.653-.264-.979-.396-.163-.067-.327-.127-.492-.191l-.492-.189c-.144-.056-.289-.109-.433-.162l-.048-.366c-.036-.296-.08-.59-.132-.884-.05-.294-.1-.587-.16-.879-.056-.293-.118-.584-.185-.875-.07-.289-.133-.58-.209-.868l-.236-.863c-.078-.287-.177-.57-.264-.854-.086-.285-.186-.565-.287-.846-.1-.28-.2-.562-.312-.837-.109-.278-.22-.554-.339-.828-.117-.274-.238-.546-.365-.816-.127-.27-.256-.539-.393-.804-.136-.266-.275-.53-.422-.79-.142-.262-.297-.519-.45-.774-.16-.255-.315-.509-.487-.756-.168-.25-.343-.492-.527-.731.03.147.064.292.1.437l.102.433.211.857.424 1.702c.07.282.145.562.21.845.072.28.144.561.208.843.033.141.07.28.106.42l.1.421c.065.282.139.56.201.84l.196.841.191.84.187.84c.055.282.12.56.18.841.063.28.109.563.171.842.063.28.115.562.167.843.05.282.117.561.163.844.05.282.099.564.156.846l.12.587.497.138c.34.093.677.191 1.018.28l.51.134c.17.045.34.092.512.133.342.083.683.171 1.028.25.344.078.687.162 1.033.234.345.076.691.148 1.04.216.172.035.347.068.522.099.174.032.348.066.523.095.35.06.702.117 1.056.168.177.025.353.05.532.071.178.021.356.044.536.06-.155-.092-.311-.177-.467-.263M85.743 37.883c-.285-.129-.573-.242-.861-.363-.288-.12-.581-.225-.872-.339-.292-.11-.586-.21-.88-.315-.294-.103-.59-.199-.887-.294-.297-.097-.595-.187-.894-.276-.299-.088-.597-.18-.898-.259l-.902-.244-.906-.227c-.605-.15-1.214-.28-1.822-.414l-.916-.185c-.306-.058-.61-.121-.917-.175-.614-.107-1.228-.216-1.844-.31l-.496-.076-.343.324c-.425.402-.857.797-1.27 1.21-.207.205-.414.41-.619.618-.205.208-.41.415-.608.628l-.6.634-.585.646c-.39.431-.768.872-1.143 1.314-.189.22-.371.446-.555.671-.184.223-.365.45-.542.679-.178.228-.36.453-.532.686-.173.232-.349.461-.518.697-.342.467-.674.94-.995 1.421-.161.24-.32.484-.473.728-.151.248-.306.492-.45.744.23-.185.449-.38.674-.568l.66-.575.655-.58.648-.582c.861-.777 1.71-1.561 2.557-2.343l2.528-2.35.631-.583c.209-.198.42-.392.632-.585l.91-.837 6.792 1.081 1.821.294c.305.047.608.098.91.15.305.049.61.095.913.15.304.052.61.098.913.153l.915.156.916.16c.309.054.614.116.925.163-.272-.151-.55-.288-.823-.433-.28-.134-.564-.265-.85-.394M58.705 18.456l2.888.075 1.446.043 1.45.047c.243.009.485.014.727.026.242.013.488.013.729.028l.732.027c.246.009.49.023.738.026-.227-.1-.457-.187-.685-.279-.23-.092-.465-.168-.698-.25-.235-.082-.469-.156-.705-.227-.236-.072-.472-.143-.71-.205-.238-.064-.476-.132-.715-.188l-.718-.172c-.48-.104-.962-.209-1.445-.295l-.725-.128c-.243-.042-.486-.075-.728-.113-.485-.076-.972-.136-1.459-.193-.487-.062-.975-.104-1.464-.149-.488-.046-.978-.074-1.468-.104l-.324-.019-.263.194c-.286.21-.59.414-.854.642-.267.225-.543.446-.792.682-.256.233-.507.47-.746.715-.241.243-.487.483-.713.736-.23.252-.462.501-.683.757-.223.255-.446.512-.658.775-.212.263-.433.52-.637.788l-.617.803-.595.817c-.196.274-.385.552-.576.83-.19.277-.374.56-.558.842-.185.281-.361.568-.538.855-.18.284-.349.577-.519.867-.173.29-.333.588-.498.882-.162.295-.318.596-.471.897-.15.303-.298.608-.438.918.244-.234.476-.478.714-.715l.698-.723.687-.727.682-.728 2.698-2.912 1.345-1.438c.222-.241.455-.469.678-.707.223-.24.453-.467.682-.697l.341-.345.346-.337c.116-.111.229-.228.347-.334.118-.108.236-.214.352-.324.23-.224.47-.42.707-.626.118-.106.239-.198.36-.29l.13-.102 2.523.055M42.868 41.193c-.073-.227-.148-.453-.214-.682l-.213-.68c-.067-.229-.132-.457-.203-.685l-.198-.686-.192-.689c-.067-.229-.123-.46-.184-.691-.065-.23-.122-.462-.18-.694l-.172-.697c-.058-.233-.108-.467-.164-.7-.057-.235-.1-.47-.156-.706-.054-.236-.095-.473-.149-.71l-.14-.716-.132-.721c-.05-.242-.082-.485-.132-.73-.054.242-.098.487-.137.733-.04.245-.071.492-.098.74-.028.248-.043.496-.062.745-.013.248-.025.498-.03.747-.005.25-.006.5 0 .75.003.248.009.499.025.748.013.249.024.499.05.747.02.248.042.497.071.745.03.247.059.496.096.742.037.246.068.494.116.739l.134.735c.048.244.103.486.155.73.055.243.113.484.172.726.059.241.126.48.192.72.067.238.127.48.204.715l.118.38c-.054.152-.106.306-.156.461-.086.258-.168.517-.248.777-.082.26-.165.519-.237.782l-.222.787c-.073.262-.134.529-.202.793-.067.264-.13.53-.189.797-.12.533-.23 1.068-.323 1.607-.045.27-.098.538-.134.81-.037.272-.081.542-.113.815-.03.272-.065.544-.09.817-.024.273-.049.546-.066.82-.018.274-.03.548-.04.822-.008.275-.011.55-.01.824.004.276.009.55.024.825.019.276.035.546.068.821.081-.263.146-.528.226-.788l.219-.78c.078-.259.144-.518.224-.775.07-.259.148-.515.225-.771.07-.258.152-.512.228-.768.071-.256.154-.51.23-.765.153-.51.314-1.016.47-1.523l.241-.759c.077-.253.16-.506.243-.757l.243-.757.247-.755.5-1.51c.082-.251.165-.503.253-.753s.168-.503.251-.755l.108-.323-.104-.317-.443-1.357M64.739 64.995c-.237.102-.489.217-.751.344-.263.126-.534.265-.81.414-.555.297-1.122.644-1.681 1.006-.556.368-1.1.755-1.593 1.148-.249.196-.482.395-.703.587-.22.192-.423.386-.61.566-.372.362-.668.696-.87.94-.201.245-.306.406-.306.406s.19-.005.505-.05c.157-.024.346-.056.558-.101.212-.047.447-.108.7-.181.254-.072.52-.166.8-.27.28-.101.567-.228.862-.362.586-.272 1.186-.61 1.76-.987.576-.378 1.123-.8 1.606-1.235.485-.433.901-.883 1.236-1.294.166-.207.312-.403.435-.584.124-.18.226-.346.306-.484.158-.276.232-.452.232-.452s-.186.04-.487.139c-.3.095-.714.247-1.19.45" transform="translate(-144 -33) translate(144.585 33.594)"/>
                <path fill="#324186" d="M75.817 87.363l.46-.022c.152-.008.302-.018.453-.028 10.56-.67 20.395-5.1 27.944-12.648 7.825-7.825 12.299-18.107 12.706-29.106l.012-.3c.005-.152.009-.305.012-.458.006-.302.011-.6.011-.895 0-.327-.005-.652-.012-.978l-.009-.316c-.007-.222-.014-.443-.024-.664l-.017-.367c-.012-.215-.025-.43-.04-.645l-.03-.437c-.02-.255-.042-.509-.066-.763-.017-.186-.037-.37-.057-.555l-.038-.343c-.025-.213-.05-.424-.078-.635l-.023-.172c-1.26-9.392-5.533-18.07-12.347-24.884C96.458 4.93 85.534.406 73.915.406c-11.62 0-22.543 4.524-30.76 12.74-8.215 8.217-12.74 19.14-12.74 30.76 0 11.62 4.525 22.543 12.74 30.759 5.737 5.736 12.793 9.67 20.485 11.524l.333.079c.19.044.38.088.572.13.223.05.447.096.67.141l.214.044c.306.06.613.116.921.17l.11.02c.332.057.665.11.998.16l.018.003c1.048.154 2.105.271 3.169.35l.038.002c.337.025.676.045 1.015.062l.103.005c.33.016.66.028.99.036l.108.003c.338.007.676.012 1.016.012.319 0 .639-.005.96-.012l.372-.01.57-.021zM107.55 28.16c.43.488 4.366 5.256 4.26 15.688-1.104 6.037-4.961 10.875-5.973 12.059l-10.716-3.532c-.86-8.003-3.761-14.117-4.529-15.62.961-1.215 4.547-5.925 7.23-11.783 1.191-.006 5.386.206 9.728 3.188zM66.153 61.706c-2.274-5.833-3.847-14.921-4.116-16.536.891-1.131 5.5-6.88 10.98-12.022 1.703.26 10.885 1.731 16.462 4 .58 1.129 3.667 7.447 4.5 15.555-.525 1.008-3.924 7.153-11.16 12.142-6.438.06-15.079-2.626-16.666-3.139zm36.8 9.389c.788-1.452 3.596-7.126 3.654-14.284.835-.945 4.694-5.567 6.134-11.704l1.791 1.855c-.687 9.334-4.52 18.04-10.984 24.885l-.595-.752zM69.998 17.641L72.2 32.31c-5.515 5.178-10.15 10.955-11.076 12.129-.38.017-.766.029-1.16.029-5.473 0-12.112-1.645-13.574-2.024-3.034-8.49-1.906-13.098-1.736-13.69.633-.909 7.152-10.176 11.586-12.804 1.185.028 8.608.258 13.758 1.691zM36.904 29.015l-2.684 5.712c.622-2.718 1.523-5.352 2.684-7.87v2.158zm1.15 28.33c-.02-.075-.054-.147-.103-.21l-3.947-5.046c-.54-2.665-.82-5.402-.82-8.183 0-1.628.098-3.24.284-4.832l4.41-9.378 5.48-.537c-.336 1.79-.7 6.368 1.962 13.768-2.972 8.058-3.255 12.741-3.24 14.37-1.644.325-3.01.243-4.026.049zm27.803 5.497c1.787.58 10.104 3.16 16.673 3.175.324 1.453 1.474 5.934 4.187 10.548-.822.971-3.951 4.185-10.699 6.097-.822.025-8.877.182-16.425-2.884-2.214-3.257-3.246-5.87-3.72-7.496-.35-1.199-.456-2.047-.488-2.479 6.327-3.36 9.569-6.13 10.472-6.961zM77.39 84.487l-.44-.878c6.855-2.082 9.962-5.422 10.751-6.394.078.003.167.004.27.004 1.699 0 6.805-.469 14.155-5.284l.6.76-.011.01c-6.867 6.87-15.757 10.98-25.325 11.782zm30.002-63.796c.121.482.737 3.182.166 6.075-4.41-2.786-8.481-2.982-9.759-2.965-.827-1.64-4.59-8.376-12.132-12.061-.014-.801-.073-2.824-.326-5.231l3.03-.369c.154-.018.292-.083.405-.178 5.163 2.02 9.901 5.105 13.939 9.143 1.74 1.74 3.3 3.61 4.677 5.586zM78.456 3.427c.037.032.077.063.123.086l5.57 2.862c.257 2.34.326 4.341.345 5.235-1.902.319-8.637 1.627-14.06 4.938-2.38-.676-5.481-1.178-9.227-1.494-2.022-.17-3.713-.238-4.55-.264-.013-1.448.098-5.51 1.595-8.506C63.15 4.246 68.45 3.176 73.915 3.176c1.528 0 3.043.086 4.54.251zm-41.524 57.59l.845-2.537c.608.12 1.32.205 2.129.205.728 0 1.534-.07 2.406-.241 3.383 6.811 10.293 10.582 11.9 11.388.074 1.158.597 4.808 4.076 10.102l-2.086.669c-4.06-1.964-7.805-4.614-11.087-7.897-3.445-3.444-6.194-7.398-8.183-11.69z" transform="translate(-144 -33) translate(144.585 33.594)"/>
                <path fill="#324186" d="M142.628 74.28c2.265-1.708 3.413-4.73 3.412-8.938l-.001-11.835c0-3.46-.862-6.204-2.562-8.11-1.782-2.003-4.35-2.993-7.63-2.991h-35.822l.009 5.618c-.452-1.157-1.106-2.153-1.964-2.975-1.837-1.76-4.472-2.643-7.832-2.643h-4.129c-3.36 0-5.993.878-7.826 2.606-.995.937-1.716 2.1-2.16 3.473-.446-1.375-1.167-2.537-2.162-3.475-1.833-1.728-4.466-2.604-7.827-2.604h-4.128c-3.361 0-5.996.88-7.831 2.63-1.31 1.249-2.148 2.895-2.506 4.905-.355-1.993-1.181-3.624-2.474-4.868-1.83-1.763-4.464-2.667-7.83-2.667h-6.126c-3.366-.001-6.004.92-7.842 2.769-1.127 1.134-1.904 2.582-2.326 4.319-.415-1.723-1.186-3.157-2.31-4.29-1.83-1.843-4.464-2.797-7.829-2.798h-3.995c-3.366-.002-6.003.976-7.837 2.956C1.317 47.283.415 50.057.415 53.556v9.873c0 1.59.18 2.884.552 3.947.44 1.262 1.177 2.277 2.189 3.014.745.545 1.832 1.13 3.318 1.783 1.987.927 3.974 1.84 5.961 2.746.33.168.617.322.851.458l-.01 7.792-.794.09.006-5.244c-4.028.403-8.053.846-12.073 1.33v5.306c0 3.662.875 6.407 2.601 8.125 1.826 1.821 4.468 2.435 7.858 1.923 1.304-.196 2.608-.386 3.913-.57 3.361-.474 6.002-1.741 7.845-3.772 1.153-1.271 1.944-2.8 2.37-4.576.42 1.681 1.2 3.032 2.335 4.035 1.839 1.625 4.483 2.253 7.863 1.94 2-.182 4-.352 6-.507 3.383-.262 6.039-1.32 7.889-3.172 1.322-1.323 2.168-3.002 2.532-5.02.354 1.983 1.186 3.578 2.492 4.762 1.836 1.664 4.477 2.43 7.85 2.335 1.38-.04 2.761-.071 4.142-.097 3.373-.062 6.017-.948 7.856-2.676.998-.938 1.721-2.097 2.168-3.47.446 1.377 1.17 2.544 2.168 3.491 1.84 1.747 4.485 2.662 7.857 2.76 1.38.04 2.761.087 4.142.14 3.371.13 6.01-.611 7.845-2.266.858-.773 1.51-1.729 1.959-2.858l.01 5.617c6.83.423 13.651 1.012 20.46 1.766l1.134.126c3.658.416 7.312.878 10.962 1.39l-.02-12.809c.966 4.37 1.93 8.776 2.892 13.22 3.966.583 7.925 1.222 11.877 1.918-1.59-7.493-3.186-14.864-4.787-22.125" transform="translate(-144 -33) translate(144.585 33.594)"/>
                <path fill="#FFFFFE" d="M16.12 57.542l.006-3.964c.003-1.802-.912-2.685-2.746-2.644l-.983.023c-1.79.041-2.685.982-2.687 2.82L9.7 61.404c0 .856.172 1.422.522 1.7.348.277.915.627 1.7 1.044 1.982.918 3.965 1.823 5.949 2.72 1.308.627 2.233 1.117 2.778 1.475.545.36.97.807 1.274 1.344.303.537.455 1.59.452 3.159l-.018 9.473c-.01 4.99-2.547 7.756-7.598 8.433-1.284.17-2.569.347-3.852.53-5.002.73-7.494-1.725-7.493-7.495v-2.351c2.088-.26 4.176-.507 6.266-.742l-.004 2.498c-.001 1.797.933 2.572 2.805 2.34l1.11-.134c1.655-.2 2.485-1.174 2.488-2.935l.012-7.678c.002-.838-.172-1.39-.52-1.655-.35-.264-.915-.596-1.7-.996-1.98-.913-3.963-1.836-5.944-2.771-1.306-.581-2.253-1.088-2.841-1.52-.588-.43-1.012-1.016-1.273-1.758-.261-.74-.392-1.723-.391-2.944l.003-9.603c.002-5.372 2.514-8.074 7.538-8.1l3.93-.031c5.023-.026 7.53 2.497 7.521 7.563-.003 1.445-.005 2.89-.009 4.334-2.096.075-4.191.155-6.286.24M34.941 89.347c-5.031.46-7.536-1.775-7.526-6.844l.06-29.386c.01-5.105 2.508-7.667 7.493-7.684l5.981-.027c4.985-.015 7.474 2.433 7.466 7.337l-.047 28.322c-.008 4.871-2.534 7.426-7.569 7.804-1.953.146-3.906.305-5.858.478zm1.508-5.436c1.062-.08 2.126-.157 3.189-.23 1.648-.113 2.475-1.01 2.478-2.7l.054-27.788c.003-1.69-.928-2.525-2.791-2.501-.976.013-1.952.026-2.927.041-1.821.025-2.733.899-2.736 2.616l-.06 28.206c-.002 1.718.927 2.498 2.793 2.356zM73.414 77.453v2.68c.001 4.746-2.496 7.093-7.488 7.177-1.346.023-2.69.053-4.036.09-4.992.143-7.482-2.116-7.475-6.91l.04-27.886c.006-4.789 2.496-7.189 7.473-7.193l4.023-.005c4.975-.004 7.463 2.366 7.464 7.105v4.721c-2.08 0-4.158.005-6.237.015 0-1.44.002-2.878.003-4.317 0-1.633-.93-2.448-2.791-2.441l-1.234.004c-1.645.007-2.468.83-2.469 2.47l-.026 26.922c-.002 1.64.82 2.435 2.47 2.4.52-.012 1.04-.023 1.562-.032 1.648-.03 2.473-.855 2.474-2.488l.001-2.276c2.082-.024 4.165-.036 6.246-.036M97.41 77.837l.005 2.71c.008 4.803-2.48 7.04-7.468 6.847-1.345-.049-2.69-.092-4.035-.13-4.99-.134-7.486-2.5-7.487-7.231l-.01-27.546c-.002-4.725 2.484-7.088 7.46-7.081 1.34.001 2.68.004 4.021.007 4.973.006 7.465 2.411 7.473 7.207l.008 4.772c-2.077-.036-4.155-.067-6.233-.095l-.005-4.331c-.002-1.639-.934-2.466-2.794-2.475l-1.233-.007c-1.645-.008-2.466.804-2.464 2.435l.022 26.798c0 1.631.825 2.463 2.474 2.507l1.561.045c1.648.05 2.47-.738 2.468-2.378l-.002-2.283c2.08.065 4.16.141 6.24.23M102.497 88.11l-.082-42.704c5.302.02 10.604.044 15.906.074l.01 5.322c-3.162-.054-6.325-.101-9.49-.144.01 4.366.02 8.732.028 13.097 2.809.1 5.616.212 8.422.336.005 1.77.008 3.54.012 5.311-2.806-.155-5.614-.295-8.422-.42l.03 14.358c3.166.218 6.33.466 9.492.743l.012 5.323c-5.3-.524-10.606-.956-15.918-1.295M122.415 45.406c4.269.026 8.537.055 12.805.087 4.995.025 7.493 2.716 7.496 8.069l.007 11.525c.002 4.086-1.287 6.56-3.866 7.405 1.523 6.546 3.043 13.181 4.558 19.914-2.054-.312-4.11-.61-6.166-.896-1.431-6.39-2.866-12.7-4.303-18.934-1.314-.105-2.629-.207-3.943-.306l.032 18.174c-2.174-.262-4.35-.51-6.527-.743l-.093-44.295zm6.578 21.726c1.429.088 2.857.18 4.285.274 1.949.132 2.922-.906 2.919-3.123l-.012-9.902c-.003-2.217-.98-3.347-2.932-3.389-1.43-.032-2.859-.062-4.29-.092l.03 16.232z" transform="translate(-144 -33) translate(144.585 33.594)"/>
                <path fill="#324186" d="M67.415 101.066v.64c0 1.134-.525 1.7-1.575 1.7h-.85c-1.05 0-1.575-.566-1.575-1.7v-6.6c0-1.133.526-1.7 1.575-1.7h.85c1.05 0 1.575.567 1.575 1.7v1.127H66.1v-1.03c0-.39-.196-.585-.589-.585h-.26c-.347 0-.521.195-.521.585v6.406c0 .39.174.585.521.585h.328c.347 0 .521-.195.521-.585v-.543h1.315M75.415 93.406v8.106c0 1.263-.496 1.894-1.487 1.894h-1.039c-.983 0-1.474-.636-1.474-1.908v-8.092h1.23v8.134c0 .436.18.654.54.654h.499c.333 0 .5-.218.5-.654v-8.134h1.231M79.415 93.406h2.406c1.062 0 1.594.571 1.594 1.713v2.966c0 1.134-.527 1.7-1.58 1.7h-1.1v3.621h-1.32v-10zm1.32 5.167h.838c.348 0 .523-.195.523-.585v-2.785c0-.39-.198-.585-.592-.585h-.77v3.955z" transform="translate(-144 -33) translate(144.585 33.594)"/>
            </g>
        </g>
    </g>
</svg>
