<svg xmlns="http://www.w3.org/2000/svg" width="43" height="38" viewBox="0 0 43 38">
    <g fill="none" fill-rule="evenodd">
        <g>
            <g>
                <path fill="#AB2531" d="M6.53 25.571s-1.62-1.258-1.696-2.763c-.075-1.505-.022-1.748-.887-2.828 0 0-.493 1.198-.142 2.36 0 0-.863-1.02-2.275-1.35 0 0 .387 1.25 1.33 1.933.943.684 1.966 1.032 3.268 3.058l.402-.41" transform="translate(-337 -587) translate(337.47 587.02)"/>
                <path fill="#AB2531" d="M3.164 20.98s.908-2.322-.137-4c0 0-.607 1.282-.573 2.114 0 0-.555-.933-1.924-1.407 0 0 .2 2.04 2.634 3.293" transform="translate(-337 -587) translate(337.47 587.02)"/>
                <path fill="#AB2531" d="M2.812 17.98s1.364-1.958.331-4c0 0-.886 1.102-1.01 1.91 0 0-.694-.996-1.597-1.63 0 0-.246 2.358 2.276 3.72M2.208 13.98s1.854-1.499 1.17-2.983c0 0-1.147.884-1.289 1.41 0 0-.396-.949-1.463-1.427 0 0-.682 1.521 1.582 3M1.703 9.98s2.165-1.688 1.781-3.33c0 0-1.308.682-1.61 1.383 0 0-.198-1.305-1.007-2.052 0 0-1.165 2.24.836 4" transform="translate(-337 -587) translate(337.47 587.02)"/>
                <path fill="#AB2531" d="M2.57 6.98s1.076-1.038.95-3c0 0-1.226.802-.95 3" transform="translate(-337 -587) translate(337.47 587.02)"/>
                <path fill="#1A3F4F" d="M36.387 12.054l-.731-6.257c-.19-1.616-1.412-2.928-3.027-3.25l-4.252-.844c-4.85-.963-9.845-.963-14.694 0l-4.252.845c-1.616.32-2.838 1.633-3.027 3.25l-.731 6.256c-.477 4.079.245 8.207 2.08 11.891 1.383 2.781 3.363 5.232 5.801 7.183l2.745 2.197c2.758 2.207 6.704 2.207 9.462 0l2.744-2.197c2.438-1.951 4.418-4.402 5.802-7.183 1.835-3.684 2.557-7.812 2.08-11.89" transform="translate(-337 -587) translate(337.47 587.02)"/>
                <path fill="#AB2531" d="M35.53 25.571s1.62-1.258 1.695-2.763c.075-1.505.022-1.748.888-2.828 0 0 .492 1.198.142 2.36 0 0 .862-1.02 2.275-1.35 0 0-.387 1.25-1.33 1.933-.943.684-1.967 1.032-3.269 3.058l-.401-.41" transform="translate(-337 -587) translate(337.47 587.02)"/>
                <path fill="#AB2531" d="M38.896 20.98s-.909-2.322.137-4c0 0 .607 1.282.573 2.114 0 0 .555-.933 1.924-1.407 0 0-.2 2.04-2.634 3.293" transform="translate(-337 -587) translate(337.47 587.02)"/>
                <path fill="#AB2531" d="M39.248 17.98s-1.365-1.958-.331-4c0 0 .886 1.102 1.01 1.91 0 0 .694-.996 1.596-1.63 0 0 .246 2.358-2.275 3.72M39.851 13.98s-1.853-1.499-1.17-2.983c0 0 1.147.884 1.29 1.41 0 0 .396-.949 1.462-1.427 0 0 .683 1.521-1.582 3M40.356 9.98s-2.164-1.688-1.78-3.33c0 0 1.308.682 1.608 1.383 0 0 .2-1.305 1.01-2.052 0 0 1.163 2.24-.838 4" transform="translate(-337 -587) translate(337.47 587.02)"/>
                <path fill="#AB2531" d="M39.49 6.98s-1.076-1.038-.95-3c0 0 1.225.802.95 3" transform="translate(-337 -587) translate(337.47 587.02)"/>
                <path fill="#FFFFFE" d="M20.53 33.98c-1.382 0-2.733-.472-3.806-1.33l-2.734-2.187c-2.25-1.8-4.116-4.107-5.393-6.672-1.71-3.43-2.378-7.25-1.934-11.046l.729-6.228c.117-1 .868-1.806 1.868-2.005l4.236-.84c2.31-.459 4.677-.692 7.034-.692s4.723.233 7.034.692l4.235.84c1.001.199 1.752 1.005 1.869 2.005l.728 6.228c.445 3.796-.224 7.616-1.933 11.046-1.278 2.565-3.143 4.872-5.393 6.672l-2.734 2.187c-1.073.858-2.425 1.33-3.806 1.33" transform="translate(-337 -587) translate(337.47 587.02)"/>
                <path fill="#1A3F4F" d="M21.03 32.98c-1.286 0-2.544-.44-3.543-1.24l-2.706-2.165c-2.187-1.75-4-3.995-5.242-6.49-1.661-3.337-2.311-7.052-1.88-10.745l.721-6.168c.098-.839.728-1.515 1.566-1.681l4.192-.833c2.264-.45 4.583-.677 6.892-.677s4.627.228 6.891.677l4.192.833c.839.166 1.468.842 1.566 1.681l.721 6.168c.432 3.693-.218 7.408-1.879 10.745-1.242 2.495-3.055 4.74-5.243 6.49l-2.705 2.166c-1 .8-2.257 1.24-3.543 1.24" transform="translate(-337 -587) translate(337.47 587.02)"/>
                <path fill="#FFFFFE" d="M20.53 32.98c-1.142 0-2.26-.39-3.146-1.098l-2.75-2.196c-2.143-1.71-3.92-3.904-5.136-6.343-1.627-3.26-2.264-6.892-1.841-10.501l.733-6.256c.063-.543.471-.98 1.015-1.088l4.262-.844c2.255-.447 4.564-.673 6.863-.673 2.3 0 4.608.226 6.863.673l4.261.844c.544.108.952.545 1.016 1.088l.733 6.256c.422 3.61-.214 7.24-1.84 10.5-1.218 2.44-2.994 4.633-5.137 6.344l-2.75 2.196c-.887.708-2.004 1.098-3.146 1.098" transform="translate(-337 -587) translate(337.47 587.02)"/>
                <path fill="#1A3F4F" d="M21.03 31.98c-.863 0-1.707-.306-2.376-.863l-2.655-2.208c-1.952-1.622-3.569-3.703-4.677-6.015-1.482-3.092-2.061-6.536-1.676-9.958l.707-6.288c.01-.083.066-.147.145-.163l4.114-.849c2.109-.435 4.268-.655 6.418-.655 2.15 0 4.31.22 6.418.655l4.113.85c.08.016.137.08.146.162l.707 6.288c.385 3.422-.195 6.866-1.676 9.958-1.108 2.312-2.725 4.392-4.677 6.015l-2.655 2.207c-.67.558-1.514.864-2.376.864" transform="translate(-337 -587) translate(337.47 587.02)"/>
                <path fill="#AB2531" d="M36.53 27.98L4.53 27.98 7.311 31.48 4.53 34.98 36.53 34.98 33.748 31.48 36.53 27.98" transform="translate(-337 -587) translate(337.47 587.02)"/>
                <path fill="#FFFFFE" d="M28.53 29.98c0 3.866-3.134 7-7 7s-7-3.134-7-7 3.134-7 7-7 7 3.134 7 7" transform="translate(-337 -587) translate(337.47 587.02)"/>
                <path fill="#AB2531" d="M26.53 29.98c0 3.314-2.686 6-6 6s-6-2.686-6-6c0-3.313 2.686-6 6-6s6 2.687 6 6" transform="translate(-337 -587) translate(337.47 587.02)"/>
                <path fill="#FFFEFB" d="M26.53 30.48c0 3.038-2.463 5.5-5.5 5.5-3.038 0-5.5-2.462-5.5-5.5 0-3.037 2.462-5.5 5.5-5.5 3.037 0 5.5 2.463 5.5 5.5" transform="translate(-337 -587) translate(337.47 587.02)"/>
                <path fill="#AB2531" d="M18.53 24.575l2.5 2.405 2.5-2.405c-.768-.383-1.613-.595-2.5-.595-.888 0-1.732.212-2.5.595M16.186 25.98c-1.03 1.21-1.656 2.79-1.656 4.522 0 .16.007.32.018.479l2.982-1.912-1.344-3.088M19.53 35.98l-.899-3-3.101.204c.883 1.404 2.315 2.435 4 2.797M25.874 25.98c1.03 1.21 1.656 2.79 1.656 4.522 0 .16-.007.32-.018.479l-2.982-1.912 1.344-3.088M22.53 35.98l.898-3 3.102.204c-.884 1.404-2.316 2.435-4 2.797M20.53 27.98L18.53 29.509 19.32 31.98 21.74 31.98 22.53 29.509 20.53 27.98" transform="translate(-337 -587) translate(337.47 587.02)"/>
                <path fill="#FFFFFE" d="M33.283 10.98H7.776l-.126 1.127c-.07.613-.107 1.225-.12 1.837.028 1.362.192 2.714.492 4.036h25.015c.3-1.322.464-2.674.493-4.036-.013-.612-.051-1.224-.12-1.837l-.127-1.127" transform="translate(-337 -587) translate(337.47 587.02)"/>
                <path fill="#0A0B09" d="M11.542 15.469L11.542 15.98 12.521 15.98 12.521 14.986 11.329 14.986 10.53 14.2 10.53 12.806 11.329 11.98 12.735 11.98 13.53 12.806 13.53 13.499 12.521 13.499 12.521 12.974 11.542 12.974 11.542 13.986 12.735 13.986 13.53 14.775 13.53 16.166 12.735 16.98 11.329 16.98 10.53 16.166 10.53 15.469 11.542 15.469M14.542 15.98h.983v-3.006h-.983v3.006zm-1.012-3.174l.795-.825h1.41l.795.825v3.36l-.795.814h-1.41l-.795-.814v-3.36zM16.53 12.806L17.325 11.98 18.735 11.98 19.53 12.806 19.53 13.499 18.525 13.499 18.525 12.974 17.513 12.974 17.513 15.98 18.525 15.98 18.525 15.469 19.53 15.469 19.53 16.166 18.735 16.98 17.325 16.98 16.53 16.166 16.53 12.806M20.53 12.806L21.325 11.98 22.735 11.98 23.53 12.806 23.53 13.499 22.525 13.499 22.525 12.974 21.513 12.974 21.513 15.98 22.525 15.98 22.525 15.469 23.53 15.469 23.53 16.166 22.735 16.98 21.325 16.98 20.53 16.166 20.53 12.806M24.942 15.98L24.942 12.974 24.53 12.974 24.53 11.98 27.53 11.98 27.53 13.499 26.663 13.499 26.663 12.974 25.802 12.974 25.802 13.986 26.663 13.986 26.663 14.986 25.802 14.986 25.802 15.98 26.663 15.98 26.663 15.469 27.53 15.469 27.53 16.98 24.53 16.98 24.53 15.98 24.942 15.98M30.049 13.986h.962v-1.012h-.962v1.012zm-1.012 1.994v-3.006h-.507v-.994h2.699l.79.826V14.2l-.304.3.304.275v1.205h.51v1h-1.94v-1h.422v-.994h-.962v.994h.422v1H28.53v-1h.507z" transform="translate(-337 -587) translate(337.47 587.02)"/>
                <path fill="#FFFFFE" d="M17.53 20.311L17.795 19.98 18.265 19.98 18.53 20.311 18.53 20.588 18.195 20.588 18.195 20.378 17.858 20.378 17.858 21.58 18.195 21.58 18.195 21.376 18.53 21.376 18.53 21.655 18.265 21.98 17.795 21.98 17.53 21.655 17.53 20.311M19.53 21.58L19.675 21.58 19.675 20.378 19.53 20.378 19.53 19.98 20.102 19.98 20.102 20.378 19.954 20.378 19.954 21.58 20.241 21.58 20.241 21.376 20.53 21.376 20.53 21.98 19.53 21.98 19.53 21.58M21.493 19.98L21.493 20.378 21.274 20.378 21.274 21.58 21.777 21.58 21.777 20.378 21.567 20.378 21.567 19.98 22.53 19.98 22.53 20.378 22.285 20.378 22.285 21.655 21.87 21.98 21.184 21.98 20.774 21.655 20.774 20.378 20.53 20.378 20.53 19.98 21.493 19.98M23.954 21.58h.287v-.397h-.287v.397zm0-.797h.287v-.405h-.287v.405zm-.287.797v-1.202h-.137v-.398h.762l.238.33v.558l-.15.12.15.11v.557l-.238.325h-.762v-.4h.137zM9.53 31.098L9.801 30.782 10.195 30.782 10.195 30.378 9.863 30.378 9.863 30.588 9.53 30.588 9.53 30.311 9.801 29.98 10.255 29.98 10.53 30.311 10.53 30.868 10.255 31.183 9.863 31.183 9.863 31.58 10.195 31.58 10.195 31.376 10.53 31.376 10.53 31.98 9.53 31.98 9.53 31.098M11.863 31.58h.332v-1.202h-.332v1.202zm-.333.075V30.31l.271-.33h.454l.275.33v1.344l-.275.325h-.454l-.271-.325zM29.53 31.58L29.786 31.58 29.786 30.588 29.53 30.588 29.53 30.284 29.786 29.98 30.294 29.98 30.294 31.58 30.53 31.58 30.53 31.98 29.53 31.98 29.53 31.58M31.53 30.311L31.795 29.98 32.265 29.98 32.53 30.311 32.53 30.868 32.442 30.988 32.53 31.098 32.53 31.655 32.265 31.98 31.795 31.98 31.53 31.655 31.53 31.376 31.867 31.376 31.867 31.58 32.202 31.58 32.202 31.183 32.031 31.183 32.031 30.782 32.202 30.782 32.202 30.378 31.867 30.378 31.867 30.588 31.53 30.588 31.53 30.311M20.53 6.981L21.148 7.968 22.53 8.126 21.53 8.895 21.766 9.98 20.53 9.468 19.294 9.98 19.53 8.895 18.53 8.126 19.912 7.968 20.53 6.981" transform="translate(-337 -587) translate(337.47 587.02)"/>
            </g>
        </g>
    </g>
</svg>
