<svg xmlns="http://www.w3.org/2000/svg" width="36" height="46" viewBox="0 0 36 46">
    <g fill="none" fill-rule="evenodd">
        <g>
            <g>
                <path fill="#1A3F4F" d="M17.561 42.07c-2.085-.95-4.018-2.063-5.743-3.309-5.62-4.056-8.975-10.82-8.975-18.092V9.76c0-.86.669-1.561 1.491-1.561h27.018c.822 0 1.491.7 1.491 1.561v10.904c0 7.392-3.48 14.246-9.309 18.335-1.637 1.148-3.457 2.181-5.409 3.071l-.282.129-.282-.129" transform="translate(-7 -584) translate(7.157 584.801)"/>
                <path fill="#FFFEFB" d="M3.395 8.199c-.304 0-.552.26-.552.582v10.925c0 6.962 3.19 13.434 8.531 17.313 1.644 1.193 3.484 2.263 5.469 3.18 1.858-.859 3.59-1.85 5.147-2.95 5.543-3.912 8.853-10.472 8.853-17.547V8.78c0-.321-.248-.582-.552-.582H3.395" transform="translate(-7 -584) translate(7.157 584.801)"/>
                <path fill="#AB2531" d="M18.843 43.728s1.816-.066 2.718-1.047c.902-.981 1.003-1.171 2.203-1.482 0 0-.34 1.047-1.236 1.663 0 0 1.164-.272 2.315.187 0 0-.97.658-2 .664-1.03.006-1.925-.253-3.957.486l-.043-.47M25.843 41.04s.424-2.271 1.77-2.841c0 0-.169 1.32-.54 1.907 0 0 .733-.334 1.77.18 0 0-.983 1.369-3 .754" transform="translate(-7 -584) translate(7.157 584.801)"/>
                <path fill="#AB2531" d="M27.843 40.142s.09-2.077 1.61-2.943c0 0 .02 1.231-.273 1.857 0 0 .852-.323 1.663-.283 0 0-.92 1.76-3 1.37M29.856 37.199s-.222-2.115 1.192-3c0 0 .166 1.273-.086 1.772 0 0 .877-.585 1.881-.464 0 0-.552 1.57-2.987 1.692M31.961 33.199s-.536-2.11.675-3c0 0 .519 1.055.325 1.652 0 0 .89-.757 1.882-.865 0 0-.477 2.002-2.882 2.213" transform="translate(-7 -584) translate(7.157 584.801)"/>
                <path fill="#AB2531" d="M33.934 31.199s-.469-1.626.72-3c0 0 .743 1.566-.72 3M16.843 43.728s-1.816-.066-2.718-1.047c-.902-.981-1.003-1.171-2.203-1.482 0 0 .34 1.047 1.236 1.663 0 0-1.164-.272-2.315.187 0 0 .97.658 2 .664 1.03.006 1.925-.253 3.957.486l.043-.47M10.843 41.04s-.424-2.271-1.77-2.841c0 0 .169 1.32.54 1.907 0 0-.733-.334-1.77.18 0 0 .983 1.369 3 .754M7.843 40.142s-.09-2.077-1.61-2.943c0 0-.02 1.231.273 1.857 0 0-.852-.323-1.663-.283 0 0 .92 1.76 3 1.37M5.83 37.199s.222-2.115-1.192-3c0 0-.166 1.273.086 1.772 0 0-.877-.585-1.881-.464 0 0 .552 1.57 2.987 1.692M3.725 33.199s.536-2.11-.675-3c0 0-.519 1.055-.325 1.652 0 0-.89-.757-1.882-.865 0 0 .477 2.002 2.882 2.213" transform="translate(-7 -584) translate(7.157 584.801)"/>
                <path fill="#AB2531" d="M2.752 31.199s.469-1.626-.72-3c0 0-.743 1.566.72 3" transform="translate(-7 -584) translate(7.157 584.801)"/>
                <path fill="#FFFEFB" d="M12.843 35.666c1.524.936 3.2 1.787 5 2.533 1.8-.746 3.478-1.597 5-2.532V13.2h-10v22.467" transform="translate(-7 -584) translate(7.157 584.801)"/>
                <path fill="#1A3F4F" d="M12.843 36.199v-23h-8v7.004c0 6.366 2.979 12.298 8 15.996M21.843 36.199v-23h8v7.004c0 6.366-2.979 12.298-8 15.996" transform="translate(-7 -584) translate(7.157 584.801)"/>
                <path fill="#FFFFFE" d="M26.843 8.699c0 4.694-3.806 8.5-8.5 8.5s-8.5-3.806-8.5-8.5 3.806-8.5 8.5-8.5 8.5 3.806 8.5 8.5" transform="translate(-7 -584) translate(7.157 584.801)"/>
                <path fill="#AB2531" d="M24.843 9.199c0 3.866-3.134 7-7 7s-7-3.134-7-7 3.134-7 7-7 7 3.134 7 7" transform="translate(-7 -584) translate(7.157 584.801)"/>
                <path fill="#FFFEFB" d="M23.843 7.699c0 3.59-2.686 6.5-6 6.5s-6-2.91-6-6.5 2.686-6.5 6-6.5 6 2.91 6 6.5" transform="translate(-7 -584) translate(7.157 584.801)"/>
                <path fill="#AB2531" d="M13.843 1.793l3 2.406 3-2.406c-.921-.382-1.935-.594-3-.594s-2.079.212-3 .594M12.499 3.199c-1.03 1.209-1.656 2.79-1.656 4.521 0 .161.007.32.018.479l2.982-1.911-1.344-3.089M16.843 16.199l-1.123-3-3.877.203c1.104 1.405 2.894 2.435 5 2.797M23.187 3.199c1.03 1.209 1.656 2.79 1.656 4.521 0 .161-.007.32-.018.479l-2.982-1.911 1.344-3.089M18.843 16.199l1.123-3 3.877.203c-1.104 1.405-2.895 2.435-5 2.797M18.343 6.199L15.843 8.11 16.83 11.199 19.856 11.199 20.843 8.11 18.343 6.199" transform="translate(-7 -584) translate(7.157 584.801)"/>
                <path fill="#FFFEFB" d="M4.843 24.199L31.843 24.199 31.843 19.199 4.843 19.199zM8.343 14.199L8.806 15.187 9.843 15.345 9.093 16.114 9.27 17.199 8.343 16.687 7.416 17.199 7.593 16.114 6.843 15.345 7.879 15.187 8.343 14.199" transform="translate(-7 -584) translate(7.157 584.801)"/>
                <path fill="#AB2531" d="M18.343 25.199L19.116 26.845 20.843 27.109 19.593 28.39 19.888 30.199 18.343 29.345 16.798 30.199 17.093 28.39 15.843 27.109 17.57 26.845 18.343 25.199" transform="translate(-7 -584) translate(7.157 584.801)"/>
                <path fill="#FFFEFB" d="M26.343 14.199L26.807 15.187 27.843 15.345 27.093 16.114 27.27 17.199 26.343 16.687 25.416 17.199 25.593 16.114 24.843 15.345 25.88 15.187 26.343 14.199" transform="translate(-7 -584) translate(7.157 584.801)"/>
                <path fill="#0A0B09" d="M5.855 23.292L5.855 23.598 6.835 23.598 6.835 23.002 5.642 23.002 4.843 22.531 4.843 21.694 5.642 21.199 7.048 21.199 7.843 21.694 7.843 22.11 6.835 22.11 6.835 21.795 5.855 21.795 5.855 22.402 7.048 22.402 7.843 22.876 7.843 23.71 7.048 24.199 5.642 24.199 4.843 23.71 4.843 23.292 5.855 23.292" transform="translate(-7 -584) translate(7.157 584.801)"/>
                <path fill="#0A0B09" d="M7.855 23.598h.983v-1.803h-.983v1.803zm-1.012-1.904l.795-.495h1.41l.795.495v2.016l-.795.489h-1.41l-.795-.489v-2.016z" transform="translate(-7 -584) translate(7.157 584.801)"/>
                <path fill="#0A0B09" d="M8.843 21.694L9.638 21.199 11.048 21.199 11.843 21.694 11.843 22.11 10.838 22.11 10.838 21.795 9.826 21.795 9.826 23.598 10.838 23.598 10.838 23.292 11.843 23.292 11.843 23.71 11.048 24.199 9.638 24.199 8.843 23.71 8.843 21.694" transform="translate(-7 -584) translate(7.157 584.801)"/>
                <path fill="#0A0B09" d="M10.843 21.694L11.638 21.199 13.048 21.199 13.843 21.694 13.843 22.11 12.838 22.11 12.838 21.795 11.826 21.795 11.826 23.598 12.838 23.598 12.838 23.292 13.843 23.292 13.843 23.71 13.048 24.199 11.638 24.199 10.843 23.71 10.843 21.694" transform="translate(-7 -584) translate(7.157 584.801)"/>
                <path fill="#0A0B09" d="M13.255 23.598L13.255 21.795 12.843 21.795 12.843 21.199 15.843 21.199 15.843 22.11 14.976 22.11 14.976 21.795 14.116 21.795 14.116 22.402 14.976 22.402 14.976 23.002 14.116 23.002 14.116 23.598 14.976 23.598 14.976 23.292 15.843 23.292 15.843 24.199 12.843 24.199 12.843 23.598 13.255 23.598M16.982 22.402h.722v-.607h-.722v.607zm-.758 1.196v-1.803h-.381V21.2h2.024l.593.495v.837l-.228.18.228.165v.722h.383v.601h-1.456v-.6h.317v-.597h-.722v.596h.317v.601h-1.456v-.6h.38zM19.843 21.694L20.638 21.199 22.048 21.199 22.843 21.694 22.843 22.11 21.838 22.11 21.838 21.795 20.826 21.795 20.826 23.598 21.838 23.598 21.838 23.292 22.843 23.292 22.843 23.71 22.048 24.199 20.638 24.199 19.843 23.71 19.843 21.694" transform="translate(-7 -584) translate(7.157 584.801)"/>
                <path fill="#0A0B09" d="M21.843 23.598L22.28 23.598 22.28 21.795 21.843 21.795 21.843 21.199 23.558 21.199 23.558 21.795 23.115 21.795 23.115 23.598 23.976 23.598 23.976 23.292 24.843 23.292 24.843 24.199 21.843 24.199 21.843 23.598M26.288 21.199L26.288 21.795 25.959 21.795 25.959 23.598 26.714 23.598 26.714 21.795 26.398 21.795 26.398 21.199 27.843 21.199 27.843 21.795 27.476 21.795 27.476 23.71 26.854 24.199 25.824 24.199 25.21 23.71 25.21 21.795 24.843 21.795 24.843 21.199 26.288 21.199" transform="translate(-7 -584) translate(7.157 584.801)"/>
                <path fill="#0A0B09" d="M28.116 23.598h.86v-.596h-.86v.596zm0-1.196h.86v-.607h-.86v.607zm-.861 1.196v-1.803h-.412V21.2h2.287l.713.495v.837l-.452.18.452.165v.834l-.713.489h-2.287v-.6h.412zM15.843 35.199L15.843 33.828 16.072 33.485 16.557 33.485 16.557 32.628 16.129 32.628 16.129 32.842 15.843 32.842 15.843 32.542 16.072 32.199 16.614 32.199 16.843 32.542 16.843 33.57 16.614 33.913 16.129 33.913 16.129 34.77 16.557 34.77 16.557 34.556 16.843 34.556 16.843 35.199 15.843 35.199M17.129 34.77h.428v-2.142h-.428v2.142zm-.057.429l-.229-.343v-2.314l.229-.343h.542l.229.343v2.314l-.229.343h-.542z" transform="translate(-7 -584) translate(7.157 584.801)"/>
                <path fill="#0A0B09" d="M17.843 35.199L17.843 34.77 18.176 34.77 18.176 32.945 17.93 32.945 17.93 32.628 18.176 32.199 18.51 32.199 18.51 34.77 18.843 34.77 18.843 35.199 17.843 35.199M18.843 32.842L18.843 32.542 19.072 32.199 19.614 32.199 19.843 32.542 19.843 33.57 19.757 33.699 19.843 33.828 19.843 34.856 19.614 35.199 19.072 35.199 18.843 34.856 18.843 34.556 19.129 34.556 19.129 34.77 19.557 34.77 19.557 33.913 19.343 33.913 19.343 33.485 19.557 33.485 19.557 32.628 19.129 32.628 19.129 32.842 18.843 32.842" transform="translate(-7 -584) translate(7.157 584.801)"/>
            </g>
        </g>
    </g>
</svg>
